<?xml version="1.0" encoding="UTF-8"?>
<svg id="Layer_1" data-name="Layer 1" xmlns="http://www.w3.org/2000/svg" viewBox="0 0 57.84 63.07">
  <defs>
    <style>
      .cls-1 {
        fill: #6b6969;
      }
    </style>
  </defs>
  <path class="cls-1" d="M20.04,60.88L4.2,6.65s10.29,7.92,19.39,7.12,8.11-3.85,15.28-3.85c7.55,0,9.98,2.97,9.98,2.97l7.2,20.88s-7.92-3.36-12.67-2.57-8.31,5.78-15.44,4.87-10.69-2.3-10.69-2.3l6.68,23.69c.66,2.33-1.68,4.38-3.91,3.43h0Z"/>
  <path class="cls-1" d="M2.01,6.21c-.38-2.16-.44-4.15,1.05-4.41s3.98,1.31,4.36,3.47-.53,4.12-2.02,4.38-3.01-1.28-3.39-3.44Z"/>
</svg>